<svg width="157" height="23" viewBox="0 0 157 23" fill="none" xmlns="http://www.w3.org/2000/svg">
<g clip-path="url(#clip0_2_12860)">
<path d="M34.4412 6.30785C33.8661 6.3015 33.2967 6.42381 32.7749 6.66581C32.2863 6.88976 31.8584 7.2277 31.5273 7.65121V6.44747H29.0841V16.1156H31.5273V10.7754C31.5273 10.0076 31.7221 9.41719 32.1118 9.00431C32.5014 8.59142 33.0335 8.38471 33.7083 8.38417C34.3713 8.38417 34.8948 8.59088 35.279 9.00431C35.6632 9.41773 35.8553 10.0081 35.8553 10.7754V16.1156H38.2985V10.4434C38.2985 9.14094 37.9435 8.12606 37.2336 7.39877C36.5235 6.6715 35.5928 6.30785 34.4412 6.30785Z" fill="#265DF5"/>
<path d="M47.275 7.8256C46.9298 7.36672 46.486 6.99116 45.9764 6.72656C45.4351 6.43599 44.8042 6.29043 44.0834 6.28988C43.2934 6.27996 42.5164 6.49171 41.8408 6.90108C41.1581 7.32245 40.6077 7.92715 40.2522 8.64624C39.8626 9.40381 39.6678 10.2696 39.6678 11.2436C39.6678 12.2334 39.8626 13.1089 40.2522 13.8703C40.6086 14.5956 41.1583 15.2085 41.8408 15.6414C42.5069 16.0595 43.2791 16.2775 44.0655 16.2696C44.7297 16.2835 45.3867 16.1305 45.9764 15.8248C46.4931 15.559 46.9385 15.1728 47.275 14.699V16.113H49.736V6.44734H47.275V7.8256ZM46.926 12.8086C46.7088 13.2148 46.3824 13.5522 45.9836 13.7826C45.5968 14.007 45.1572 14.1243 44.71 14.1227C44.2697 14.1235 43.8378 14.0027 43.4617 13.7737C43.0626 13.5307 42.7369 13.184 42.5192 12.7704C42.2727 12.2998 42.1498 11.7741 42.1621 11.2428C42.1621 10.6617 42.2812 10.1587 42.5192 9.73389C42.6813 9.44084 42.9 9.18306 43.1628 8.97561C43.4254 8.76818 43.7271 8.61526 44.0497 8.52584C44.3723 8.43641 44.7096 8.41227 45.0416 8.45482C45.3737 8.49738 45.694 8.60578 45.9836 8.77367C46.3824 9.00406 46.7088 9.34145 46.926 9.7477C47.1586 10.1725 47.275 10.6814 47.275 11.2745C47.275 11.8676 47.1586 12.3789 46.926 12.8086Z" fill="#265DF5"/>
<path d="M58.0381 11.7736C58.0381 12.5415 57.846 13.1318 57.4618 13.5447C57.0776 13.9576 56.5484 14.164 55.8742 14.164C55.2107 14.164 54.6871 13.9576 54.3035 13.5447C53.9199 13.1318 53.7278 12.5415 53.7272 11.7736V6.44727H51.284V12.1226C51.284 12.9841 51.4499 13.7257 51.7816 14.3475C52.088 14.9442 52.5649 15.4363 53.1518 15.7614C53.7687 16.0899 54.4593 16.2551 55.1582 16.2411C55.7278 16.2465 56.2915 16.1242 56.8076 15.8833C57.2932 15.6617 57.7161 15.3227 58.0381 14.897V16.1146H60.4983V6.45052H58.0381V11.7736Z" fill="#265DF5"/>
<path d="M70.9115 6.45447H67.7353L64.4894 10.556V3.2085H62.0462V16.1225H64.4894V12.004L67.7702 16.1225H70.9464L66.6534 11.306L70.9115 6.45447Z" fill="#265DF5"/>
<path d="M74.5188 7.95469V6.44737H72.0739V16.1186H74.5171V11.3021C74.5171 10.406 74.712 9.77776 75.1016 9.41736C75.4912 9.05698 76.0702 8.87651 76.8386 8.87596H77.4879V6.31101C76.8917 6.29685 76.3025 6.44163 75.7806 6.73049C75.2589 7.01935 74.8233 7.44188 74.5188 7.95469Z" fill="#265DF5"/>
<path d="M81.0716 6.44727H78.6284V16.1194H81.0716V6.44727Z" fill="#265DF5"/>
<path d="M79.8499 5.29369C80.6568 5.29369 81.3109 4.63954 81.3109 3.83263C81.3109 3.02571 80.6568 2.37158 79.8499 2.37158C79.0429 2.37158 78.3889 3.02571 78.3889 3.83263C78.3889 4.63954 79.0429 5.29369 79.8499 5.29369Z" fill="#265DF5"/>
<path d="M11.2943 22.5651C17.5254 22.5651 22.5768 17.5137 22.5768 11.2825C22.5768 5.05136 17.5254 0 11.2943 0C5.06308 0 0.0117188 5.05136 0.0117188 11.2825C0.0117188 17.5137 5.06308 22.5651 11.2943 22.5651Z" fill="#265DF5"/>
<path d="M14.6871 15.4618L14.662 16.6055L14.5889 19.9076V20.035C9.00933 15.2062 8.05884 14.0284 7.89405 13.6704L7.88838 13.6583C7.86854 13.5909 7.86383 13.5199 7.87457 13.4505C7.87851 13.4247 7.88393 13.3993 7.89082 13.3742C7.89649 13.3539 7.90218 13.3344 7.90947 13.3133C7.96962 13.1554 8.05485 13.0082 8.16192 12.8774C8.23859 12.7783 8.32214 12.6848 8.41192 12.5974C8.60391 12.4075 8.80955 12.232 9.02718 12.0722C9.13513 11.991 9.24796 11.9099 9.36728 11.8287C9.59781 11.6712 9.84699 11.5138 10.1051 11.3604C12.11 13.2305 14.6547 15.4318 14.6871 15.4618Z" fill="url(#paint0_linear_2_12860)"/>
<path d="M14.761 4.61523L14.7358 5.76297L14.7228 6.33114L14.6968 7.47321L14.6839 8.04626L14.6587 9.18912C14.6189 9.20537 12.0743 10.1924 10.1132 11.3588C9.85508 11.5122 9.6067 11.6697 9.37538 11.8271C9.25686 11.9083 9.14323 11.9895 9.03527 12.0706C8.81797 12.2308 8.61236 12.4064 8.42 12.5958C8.33045 12.6834 8.24691 12.777 8.17001 12.8758C7.99305 13.1015 7.88673 13.3231 7.87131 13.5317L7.89241 12.5779V12.5715L7.89647 12.4237V12.3701L7.9135 11.7687L7.94598 10.5763L7.9614 9.99352L7.99387 8.81168C8.39728 7.15745 14.0946 4.87741 14.761 4.61523Z" fill="white"/>
<path d="M9.50851 5.87981C10.4333 5.87981 11.183 5.13011 11.183 4.20529C11.183 3.28048 10.4333 2.53076 9.50851 2.53076C8.5837 2.53076 7.83398 3.28048 7.83398 4.20529C7.83398 5.13011 8.5837 5.87981 9.50851 5.87981Z" fill="white"/>
<path d="M152.123 16.373C151.347 16.373 150.647 16.2355 150.025 15.9605C149.415 15.6734 148.931 15.2909 148.572 14.8126C148.214 14.3224 148.022 13.7784 147.998 13.1805H150.115C150.151 13.599 150.348 13.9517 150.706 14.2387C151.077 14.5137 151.538 14.6512 152.087 14.6512C152.662 14.6512 153.104 14.5436 153.415 14.3284C153.737 14.1012 153.9 13.8142 153.9 13.4675C153.9 13.0968 153.719 12.8218 153.361 12.6425C153.014 12.4631 152.458 12.2659 151.693 12.0506C150.951 11.8474 150.348 11.6501 149.882 11.4588C149.415 11.2675 149.009 10.9745 148.662 10.58C148.327 10.1854 148.16 9.66529 148.16 9.01962C148.16 8.49353 148.315 8.01527 148.626 7.58483C148.937 7.14243 149.379 6.79568 149.953 6.5446C150.539 6.29351 151.208 6.16797 151.962 6.16797C153.086 6.16797 153.988 6.45492 154.67 7.02884C155.363 7.5908 155.735 8.362 155.782 9.34246H153.737C153.701 8.90006 153.522 8.54734 153.2 8.28429C152.877 8.02124 152.44 7.88973 151.89 7.88973C151.353 7.88973 150.939 7.99135 150.653 8.19461C150.366 8.39788 150.222 8.6669 150.222 9.00169C150.222 9.26474 150.318 9.48594 150.509 9.66529C150.701 9.84463 150.933 9.98812 151.208 10.0957C151.484 10.1914 151.89 10.3169 152.428 10.4724C153.146 10.6637 153.731 10.861 154.185 11.0642C154.652 11.2555 155.053 11.5425 155.387 11.9251C155.723 12.3077 155.896 12.8159 155.908 13.4496C155.908 14.0115 155.753 14.5137 155.442 14.9561C155.13 15.3984 154.688 15.7452 154.115 15.9963C153.552 16.2473 152.889 16.373 152.123 16.373Z" fill="#F55D27"/>
<path d="M146.53 6.3291V16.2113H144.486V15.0455C144.163 15.452 143.738 15.7748 143.212 16.014C142.698 16.2412 142.148 16.3548 141.562 16.3548C140.785 16.3548 140.086 16.1934 139.464 15.8705C138.854 15.5477 138.37 15.0695 138.011 14.4357C137.664 13.802 137.491 13.0368 137.491 12.14V6.3291H139.518V11.8351C139.518 12.7199 139.739 13.4015 140.181 13.8797C140.624 14.346 141.228 14.5792 141.993 14.5792C142.758 14.5792 143.362 14.346 143.804 13.8797C144.258 13.4015 144.486 12.7199 144.486 11.8351V6.3291H146.53Z" fill="#F55D27"/>
<path d="M128.161 7.78211C128.508 7.32775 128.98 6.94516 129.578 6.63428C130.176 6.32341 130.852 6.16797 131.605 6.16797C132.466 6.16797 133.249 6.38319 133.954 6.81363C134.672 7.23211 135.234 7.82396 135.64 8.58919C136.047 9.35442 136.25 10.2332 136.25 11.2256C136.25 12.218 136.047 13.1088 135.64 13.8979C135.234 14.6751 134.672 15.2849 133.954 15.7273C133.249 16.1577 132.466 16.373 131.605 16.373C130.852 16.373 130.182 16.2234 129.596 15.9245C129.01 15.6137 128.532 15.2312 128.161 14.7767V20.9105H126.117V6.32938H128.161V7.78211ZM134.17 11.2256C134.17 10.5441 134.026 9.95823 133.739 9.46799C133.464 8.96581 133.094 8.58919 132.627 8.3381C132.173 8.07505 131.683 7.94353 131.157 7.94353C130.642 7.94353 130.152 8.07505 129.686 8.3381C129.231 8.60115 128.861 8.98376 128.574 9.48594C128.299 9.98812 128.161 10.58 128.161 11.2615C128.161 11.943 128.299 12.5408 128.574 13.055C128.861 13.5572 129.231 13.9398 129.686 14.2028C130.152 14.4659 130.642 14.5974 131.157 14.5974C131.683 14.5974 132.173 14.4659 132.627 14.2028C133.094 13.9278 133.464 13.5333 133.739 13.0191C134.026 12.505 134.17 11.9071 134.17 11.2256Z" fill="#F55D27"/>
<path d="M120.288 6.16797C121.066 6.16797 121.759 6.32938 122.369 6.65222C122.991 6.97505 123.475 7.45331 123.822 8.08701C124.18 8.72071 124.36 9.48594 124.36 10.3827V16.2115H122.333V10.6876C122.333 9.80278 122.112 9.12723 121.669 8.66093C121.227 8.18266 120.623 7.94353 119.858 7.94353C119.093 7.94353 118.483 8.18266 118.029 8.66093C117.586 9.12723 117.365 9.80278 117.365 10.6876V16.2115H115.338V10.6876C115.338 9.80278 115.117 9.12723 114.675 8.66093C114.232 8.18266 113.629 7.94353 112.863 7.94353C112.098 7.94353 111.488 8.18266 111.034 8.66093C110.592 9.12723 110.371 9.80278 110.371 10.6876V16.2115H108.326V6.32938H110.371V7.45928C110.705 7.05276 111.13 6.7359 111.644 6.50873C112.158 6.28156 112.708 6.16797 113.294 6.16797C114.083 6.16797 114.788 6.33536 115.41 6.67015C116.032 7.00494 116.51 7.48917 116.845 8.12287C117.144 7.52505 117.61 7.05276 118.244 6.70601C118.878 6.34732 119.559 6.16797 120.288 6.16797Z" fill="#F55D27"/>
<path d="M96.334 11.2256C96.334 10.2332 96.5372 9.35442 96.9437 8.58919C97.3622 7.82396 97.9242 7.23211 98.6296 6.81363C99.347 6.38319 100.136 6.16797 100.997 6.16797C101.774 6.16797 102.45 6.32341 103.024 6.63428C103.61 6.9332 104.076 7.30982 104.423 7.76418V6.32938H106.485V16.2115H104.423V14.7409C104.076 15.2072 103.604 15.5958 103.006 15.9066C102.408 16.2176 101.726 16.373 100.961 16.373C100.112 16.373 99.3351 16.1577 98.6296 15.7273C97.9242 15.2849 97.3622 14.6751 96.9437 13.8979C96.5372 13.1088 96.334 12.218 96.334 11.2256ZM104.423 11.2615C104.423 10.58 104.279 9.98812 103.992 9.48594C103.717 8.98376 103.352 8.60115 102.898 8.3381C102.444 8.07505 101.954 7.94353 101.428 7.94353C100.901 7.94353 100.411 8.07505 99.9569 8.3381C99.5024 8.58919 99.1318 8.96581 98.8449 9.46799C98.5699 9.95823 98.4324 10.5441 98.4324 11.2256C98.4324 11.9071 98.5699 12.505 98.8449 13.0191C99.1318 13.5333 99.5024 13.9278 99.9569 14.2028C100.423 14.4659 100.913 14.5974 101.428 14.5974C101.954 14.5974 102.444 14.4659 102.898 14.2028C103.352 13.9398 103.717 13.5572 103.992 13.055C104.279 12.5408 104.423 11.943 104.423 11.2615Z" fill="#F55D27"/>
<path d="M85.6581 11.2615C85.6581 10.2452 85.8614 9.35442 86.268 8.58919C86.6863 7.812 87.2604 7.21418 87.9897 6.79568C88.719 6.37721 89.556 6.16797 90.5006 6.16797C91.6962 6.16797 92.6826 6.45492 93.4598 7.02884C94.2489 7.5908 94.781 8.39788 95.056 9.45006H92.8501C92.6707 8.95984 92.3837 8.57723 91.9891 8.30222C91.5945 8.02723 91.0984 7.88973 90.5006 7.88973C89.6636 7.88973 88.994 8.18864 88.4918 8.78647C88.0016 9.37235 87.7565 10.1974 87.7565 11.2615C87.7565 12.3256 88.0016 13.1566 88.4918 13.7545C88.994 14.3523 89.6636 14.6512 90.5006 14.6512C91.6842 14.6512 92.4674 14.1311 92.8501 13.0909H95.056C94.7691 14.0952 94.231 14.8963 93.4419 15.4941C92.6527 16.0801 91.6723 16.373 90.5006 16.373C89.556 16.373 88.719 16.1637 87.9897 15.7452C87.2604 15.3148 86.6863 14.717 86.268 13.9517C85.8614 13.1746 85.6581 12.2778 85.6581 11.2615Z" fill="#F55D27"/>
</g>
<defs>
<linearGradient id="paint0_linear_2_12860" x1="13.5337" y1="17.194" x2="6.91598" y2="9.56" gradientUnits="userSpaceOnUse">
<stop stop-color="white"/>
<stop offset="1" stop-color="#265DF5"/>
</linearGradient>
<clipPath id="clip0_2_12860">
<rect width="156" height="22.5651" fill="white" transform="translate(0.0117188)"/>
</clipPath>
</defs>
</svg>
